<?xml version="1.0" encoding="utf-8"?>
<!-- Generator: Adobe Illustrator 28.3.0, SVG Export Plug-In . SVG Version: 6.00 Build 0)  -->
<svg version="1.1" id="Layer_1" xmlns="http://www.w3.org/2000/svg" xmlns:xlink="http://www.w3.org/1999/xlink" x="0px" y="0px"
	 viewBox="0 0 160 24" style="enable-background:new 0 0 160 24;" xml:space="preserve">
<style type="text/css">
	.st0{fill:#DE512E;stroke:#000000;stroke-width:5.000000e-02;stroke-miterlimit:10;}
	.st1{fill:none;stroke:#000000;stroke-width:5.000000e-02;stroke-miterlimit:10;}
	.st2{fill:#F4F3F2;stroke:#000000;stroke-width:5.000000e-02;stroke-miterlimit:10;}
	.st3{fill:#DD522E;stroke:#000000;stroke-width:5.000000e-02;stroke-miterlimit:10;}
	.st4{stroke:#000000;stroke-width:5.000000e-02;stroke-miterlimit:10;}
	.st5{fill:#FFFFFF;stroke:#000000;stroke-width:5.000000e-02;stroke-miterlimit:10;}
	.st6{fill:none;}
	.st7{enable-background:new    ;}
</style>
<g>
	<path class="st0" d="M19,12l-1.4,1.3v7h-2.1l-4.9,3l1,0.6l4.2-2.6h2.9v-7.6l1.1-1L19,12z M18.8,10.3V2.7h-3l-4.1-2.5l-1.1,0.6
		l4.9,3h2.2v7l1.3,1.3l0.8-0.8L18.8,10.3z M3.6,3.7h2.1l4.9-3L9.5,0.1L5.4,2.7H2.5v7.6l-1,0.9L2.2,12l1.4-1.3V3.7z M3.5,20.3v-7
		L2.2,12l-0.8,0.8l1,1v7.6h3L9.5,24l1-0.6l-4.9-3H3.5V20.3z"/>
	<polygon class="st1" points="19,12 17.6,13.3 17.6,20.3 15.5,20.3 10.6,23.3 5.8,20.3 3.5,20.3 3.5,13.3 2.2,12 3.6,10.7 3.6,3.7 
		5.7,3.7 10.6,0.7 15.5,3.7 17.7,3.7 17.7,10.7 	"/>
	<polygon class="st2" points="19,12 17.6,13.3 17.6,20.3 15.5,20.3 10.6,23.3 5.8,20.3 3.5,20.3 3.5,13.3 2.2,12 3.6,10.7 3.6,3.7 
		5.7,3.7 10.6,0.7 15.5,3.7 17.7,3.7 17.7,10.7 	"/>
	<line class="st1" x1="3.6" y1="3.7" x2="2.5" y2="2.7"/>
	<line class="st1" x1="17.6" y1="20.3" x2="18.7" y2="21.4"/>
	<line class="st1" x1="17.7" y1="3.7" x2="18.8" y2="2.7"/>
	<line class="st1" x1="9.5" y1="0.1" x2="9.5" y2="0.1"/>
	<line class="st1" x1="3.5" y1="20.3" x2="2.5" y2="21.4"/>
	<path class="st3" d="M10.6,3.9c-3.2,0-5.8,2.6-5.8,5.8s2.6,5.8,5.8,5.8s5.8-2.6,5.8-5.8C16.4,6.6,13.8,3.9,10.6,3.9z M10.6,14.3
		c-2.5,0-4.6-2-4.6-4.5s2-4.5,4.6-4.5c2.5,0,4.6,2,4.6,4.5C15.1,12.3,13.1,14.3,10.6,14.3z"/>
	<ellipse class="st1" cx="10.6" cy="9.8" rx="4.6" ry="4.5"/>
	<ellipse class="st2" cx="10.6" cy="9.8" rx="4.6" ry="4.5"/>
	<path class="st4" d="M10.5,5.3h4.6v2.9h-0.7c0,0-0.3-0.8-0.3-0.9C14,7,13.8,6.7,13.6,6.4C13.4,6.2,13.3,6.1,13,6
		c-0.1,0-0.2,0-0.4,0c-0.3,0-0.6,0-0.9,0v7.7c0,0.5,0.9,0.5,0.9,0.5h0.7v0.7h-2.8H7.7v-0.7h0.7c0,0,0.9,0,0.9-0.5V6C9,6,8.7,6,8.4,6
		C8.3,6,8.2,6,8,6.1S7.6,6.3,7.4,6.5S7,7,6.9,7.3c0,0.1-0.3,0.9-0.3,0.9H5.9V5.3H10.5z"/>
	<polygon class="st5" points="7.9,8.5 7.9,12 10.6,12.7 13.1,12 13.2,8.5 10.6,9.3 	"/>
	<line class="st1" x1="10.6" y1="9.3" x2="10.6" y2="12.7"/>
	<line class="st1" x1="8.3" y1="9.3" x2="10.2" y2="9.8"/>
	<line class="st1" x1="8.3" y1="9.8" x2="10.2" y2="10.4"/>
	<line class="st1" x1="8.3" y1="10.4" x2="10.2" y2="11"/>
	<line class="st1" x1="8.2" y1="10.9" x2="10.1" y2="11.5"/>
	<line class="st1" x1="8.2" y1="11.4" x2="10.1" y2="12"/>
	<line class="st1" x1="10.9" y1="9.9" x2="12.8" y2="9.3"/>
	<line class="st1" x1="10.9" y1="10.4" x2="12.8" y2="9.9"/>
	<line class="st1" x1="10.9" y1="10.9" x2="12.8" y2="10.4"/>
	<line class="st1" x1="10.9" y1="11.5" x2="12.8" y2="10.9"/>
	<line class="st1" x1="10.9" y1="12" x2="12.8" y2="11.4"/>
	<path class="st1" d="M5.9,5.3"/>
	<g>
		<g>
			<path class="st4" d="M4.9,17.3v-0.2H6v0.2l-0.5,0.1H5.4L4.9,17.3z M6.2,19.3c0.4,0,0.6-0.2,0.6-0.8v-1.4H7v1.4
				c0,0.8-0.4,1.1-0.9,1.1s-0.9-0.3-0.9-1v-0.4c0-0.4,0-0.7,0-1.1h0.5c0,0.4,0,0.7,0,1.1v0.3C5.6,19.1,5.8,19.3,6.2,19.3z M6.8,17.3
				H6.4v-0.2h0.9v0.2H6.8L6.8,17.3z"/>
			<path class="st4" d="M8.4,17.3v-0.2H9v0.2l0,0H8.4z M9,19.3l0.5,0.1v0.2H8.4v-0.2l0.5-0.1H9z M8.7,18.2c0-0.4,0-0.8,0-1.1h0.5
				c0,0.4,0,0.8,0,1.1v0.1c0,0.4,0,0.8,0,1.2H8.7c0-0.4,0-0.8,0-1.1V18.2z M9.9,17.1l0.2,0.2H8.9v-0.2h1.3v0.6H9.9V17.1z M9.8,18.4
				H9v-0.2h0.8V18.4z M9.7,18.2l0.1-0.4H10v0.9H9.8l-0.1-0.4V18.2z"/>
			<path class="st4" d="M12.6,19c0-0.2-0.1-0.3-0.4-0.4l-0.1-0.1c-0.4-0.2-0.7-0.4-0.7-0.8s0.4-0.7,0.9-0.7c0.3,0,0.5,0.1,0.6,0.2
				v0.5h-0.3l-0.1-0.6l0.3,0.1v0.2c-0.2-0.2-0.3-0.2-0.5-0.2s-0.4,0.1-0.4,0.4c0,0.2,0.1,0.3,0.4,0.4l0.2,0.1
				c0.5,0.2,0.7,0.4,0.7,0.8s-0.3,0.7-0.9,0.7c-0.3,0-0.6-0.1-0.8-0.2v-0.5h0.3l0.1,0.6l-0.3-0.1v-0.2c0.2,0.1,0.4,0.2,0.6,0.2
				C12.4,19.4,12.6,19.2,12.6,19z"/>
			<path class="st4" d="M14.1,17.3v-0.2h0.6v0.2l0,0H14.1z M14.6,19.3v0.2H14v-0.2H14.6L14.6,19.3z M14.4,18.2c0-0.4,0-0.8,0-1.1
				h0.5c0,0.4,0,0.8,0,1.1v0.1c0,0.4,0,0.8,0,1.2h-0.5c0-0.4,0-0.8,0-1.2V18.2z M14.6,19.3h0.5c0.5,0,0.8-0.4,0.8-1
				c0-0.7-0.3-1-0.8-1h-0.5v-0.2h0.5c0.7,0,1.2,0.4,1.2,1.2c0,0.8-0.5,1.2-1.3,1.2h-0.5L14.6,19.3L14.6,19.3z"/>
		</g>
	</g>
</g>
<rect x="25.8" y="4.9" class="st6" width="136.7" height="14.8"/>
<g class="st7">
	<path d="M30.7,19.3c-0.5,0-0.7-0.2-0.7-0.7V8.7h-2.9c-0.5,0-0.7-0.2-0.7-0.7V5.6c0-0.5,0.2-0.7,0.7-0.7h10.6c0.5,0,0.7,0.2,0.7,0.7
		V8c0,0.5-0.2,0.7-0.7,0.7h-2.9v9.8c0,0.5-0.2,0.7-0.7,0.7L30.7,19.3L30.7,19.3z"/>
	<path d="M40,18.6v-2.4c0-0.5,0.2-0.7,0.7-0.7h2V8.7h-2C40.2,8.7,40,8.5,40,8V5.6c0-0.5,0.2-0.7,0.7-0.7h8.5c0.5,0,0.7,0.2,0.7,0.7
		V8c0,0.5-0.2,0.7-0.7,0.7h-1.9v6.7h1.9c0.5,0,0.7,0.2,0.7,0.7v2.4c0,0.5-0.2,0.7-0.7,0.7h-8.5C40.2,19.3,40,19.1,40,18.6z"/>
	<path d="M57.1,19.3c-3.4,0-4.9-1.3-4.9-4.1V9c0-2.8,1.6-4.1,4.9-4.1h5c0.5,0,0.7,0.2,0.7,0.7V8c0,0.5-0.2,0.7-0.7,0.7h-4.2
		c-0.8,0-1.2,0.3-1.2,1v4.8c0,0.7,0.3,1,0.9,1h1.9v-3.1c0-0.5,0.2-0.7,0.7-0.7h3.1c0.5,0,0.7,0.2,0.7,0.7v6.2c0,0.5-0.2,0.7-0.7,0.7
		H57.1z"/>
	<path d="M67.3,19.3c-0.5,0-0.7-0.2-0.7-0.7v-13c0-0.5,0.2-0.7,0.7-0.7h9.3c0.5,0,0.7,0.2,0.7,0.7v2.3c0,0.5-0.2,0.7-0.7,0.7H71v1.5
		h3.9c0.5,0,0.7,0.2,0.7,0.7v2.1c0,0.5-0.2,0.7-0.7,0.7H71v1.7h5.5c0.5,0,0.7,0.2,0.7,0.7v2.3c0,0.5-0.2,0.7-0.7,0.7h-9.2V19.3z"/>
	<path d="M80.4,19.3c-0.5,0-0.7-0.2-0.7-0.7v-13c0-0.5,0.2-0.7,0.7-0.7H87c3,0,3.9,1.4,3.9,3.3v0.9c0,1.1-0.3,1.9-1.1,2.3
		c1.5,0.2,2.4,1.2,2.4,2.9v4.2c0,0.5-0.2,0.7-0.7,0.7h-3.1c-0.5,0-0.7-0.2-0.7-0.7v-3.1c0-0.6-0.2-0.9-0.8-0.9h-2.8v3.9
		c0,0.5-0.2,0.7-0.7,0.7h-3C80.4,19.1,80.4,19.3,80.4,19.3z M84.2,11h1.5c0.7,0,0.9-0.4,0.9-0.9V9.4c0-0.5-0.2-0.9-0.9-0.9h-1.5V11z
		"/>
	<path d="M95.2,19.3c-0.5,0-0.7-0.2-0.7-0.7v-13c0-0.5,0.2-0.7,0.7-0.7h6.4c2.6,0,3.8,1,3.8,3.1v1c0,1.1-0.4,1.8-1.2,2.2
		c1.7,0.2,2.5,1.1,2.5,3.1V16c0,2.2-1.2,3.3-3.9,3.3H95.2z M99,10.4h1.7c0.5,0,0.8-0.3,0.8-0.8V9.1c0-0.5-0.2-0.8-0.8-0.8H99V10.4z
		 M99,15.9h2.6c0.5,0,0.8-0.3,0.8-0.8v-0.8c0-0.5-0.2-0.8-0.8-0.8H99V15.9z"/>
	<path d="M112.7,19.3c-0.5,0-0.7-0.2-0.7-0.7V16l-3.1-4.1c-0.6-0.8-0.8-1.2-0.8-2.5V5.6c0-0.5,0.2-0.7,0.7-0.7h3.1
		c0.5,0,0.7,0.2,0.7,0.7v3.3c0,0.3,0,0.6,0.2,0.8l0.9,1.4c0.1,0.2,0.3,0.3,0.5,0.3h0.2c0.2,0,0.3-0.1,0.5-0.3l0.9-1.4
		c0.2-0.3,0.2-0.6,0.2-0.8V5.6c0-0.5,0.2-0.7,0.7-0.7h3c0.5,0,0.7,0.2,0.7,0.7v3.8c0,1.2-0.2,1.6-0.8,2.5l-3,4.1v2.5
		c0,0.5-0.2,0.7-0.7,0.7L112.7,19.3L112.7,19.3z"/>
	<path d="M126.3,19.3c-0.5,0-0.7-0.2-0.7-0.7V8.7h-2.9c-0.5,0-0.7-0.2-0.7-0.7V5.6c0-0.5,0.2-0.7,0.7-0.7h10.6
		c0.5,0,0.7,0.2,0.7,0.7V8c0,0.5-0.2,0.7-0.7,0.7h-2.9v9.8c0,0.5-0.2,0.7-0.7,0.7L126.3,19.3L126.3,19.3z"/>
	<path d="M136.5,19.3c-0.5,0-0.7-0.2-0.7-0.7v-13c0-0.5,0.2-0.7,0.7-0.7h9.3c0.5,0,0.7,0.2,0.7,0.7v2.3c0,0.5-0.2,0.7-0.7,0.7h-5.5
		v1.5h3.9c0.5,0,0.7,0.2,0.7,0.7v2.1c0,0.5-0.2,0.7-0.7,0.7h-3.9v1.7h5.5c0.5,0,0.7,0.2,0.7,0.7v2.3c0,0.5-0.2,0.7-0.7,0.7h-9.3
		V19.3z"/>
	<path d="M149.3,19.3c-0.5,0-0.7-0.2-0.7-0.7v-2.3c0-0.5,0.2-0.7,0.7-0.7h5.4c0.3,0,0.5-0.3,0.5-0.6c0-0.5-0.2-0.6-0.5-0.7l-3-0.4
		c-1.9-0.3-3.1-1.1-3.1-3.3V8.4c0-2.3,1.5-3.5,4.1-3.5h5.6c0.5,0,0.7,0.2,0.7,0.7V8c0,0.5-0.2,0.7-0.7,0.7h-4.7
		c-0.3,0-0.5,0.2-0.5,0.6c0,0.4,0.2,0.6,0.5,0.6l3,0.4c1.9,0.3,3.1,1.1,3.1,3.3v2.1c0,2.3-1.6,3.5-4.1,3.5L149.3,19.3L149.3,19.3z"
		/>
</g>
</svg>
